<?xml version="1.0" encoding="utf-8"?>
<!-- Generator: Adobe Illustrator 27.0.0, SVG Export Plug-In . SVG Version: 6.00 Build 0)  -->
<svg version="1.1" id="Stars_by_Dreamstale" xmlns="http://www.w3.org/2000/svg" xmlns:xlink="http://www.w3.org/1999/xlink"
	 x="0px" y="0px" viewBox="0 0 864 864" style="enable-background:new 0 0 864 864;" xml:space="preserve">
<style type="text/css">
	.st0{fill:#F8C400;}
</style>
<g>
	<path class="st0" d="M743.74,392.86l-124.88-22.85c-71.37-13.06-127.21-68.9-140.27-140.27l-22.85-124.88l-22.85,124.88
		c-13.06,71.37-68.9,127.21-140.27,140.27l-124.88,22.85l124.88,22.85c71.37,13.06,127.21,68.9,140.27,140.27l22.85,124.88
		l22.85-124.88c13.06-71.37,68.9-127.21,140.27-140.27L743.74,392.86z"/>
	<path class="st0" d="M711.04,535.19c-22.93-4.2-40.87-22.14-45.07-45.07l-7.34-40.12l-7.34,40.12
		c-4.2,22.93-22.14,40.87-45.07,45.07l-40.12,7.34l40.12,7.34c22.93,4.2,40.87,22.14,45.07,45.07l7.34,40.12l7.34-40.12
		c4.2-22.93,22.14-40.87,45.07-45.07l40.12-7.34L711.04,535.19z"/>
	<path class="st0" d="M299.91,247.97l6.78,37.06l6.78-37.06c3.88-21.18,20.45-37.75,41.63-41.63l37.06-6.78l-37.06-6.78
		c-21.18-3.88-37.75-20.45-41.63-41.63l-6.78-37.06l-6.78,37.06c-3.88,21.18-20.45,37.75-41.63,41.63l-37.06,6.78l37.06,6.78
		C279.46,210.22,296.03,226.79,299.91,247.97z"/>
	<path class="st0" d="M259.55,546.22l-10.78-58.94l-10.78,58.94c-6.16,33.68-32.52,60.04-66.2,66.2l-58.94,10.78L171.77,634
		c33.68,6.16,60.04,32.52,66.2,66.2l10.78,58.94l10.78-58.94c6.16-33.68,32.52-60.04,66.2-66.2l58.94-10.78l-58.94-10.78
		C292.07,606.26,265.71,579.91,259.55,546.22z"/>
</g>
</svg>
