<?xml version="1.0" encoding="utf-8"?>
<!-- Generator: Adobe Illustrator 27.0.0, SVG Export Plug-In . SVG Version: 6.00 Build 0)  -->
<svg version="1.1" id="Stars_by_Dreamstale" xmlns="http://www.w3.org/2000/svg" xmlns:xlink="http://www.w3.org/1999/xlink"
	 x="0px" y="0px" viewBox="0 0 864 864" style="enable-background:new 0 0 864 864;" xml:space="preserve">
<style type="text/css">
	.st0{fill:#F8C400;}
</style>
<polygon class="st0" points="489.12,446.25 784.77,432 489.12,417.75 652.57,340.64 478.23,403.2 650.38,213.62 460.8,385.77 
	523.36,211.44 446.25,374.88 432,79.23 417.75,374.88 340.64,211.44 403.2,385.77 213.62,213.62 385.77,403.2 211.44,340.64 
	374.88,417.75 79.23,432 374.88,446.25 211.44,523.36 385.77,460.8 213.62,650.38 403.2,478.23 340.64,652.56 417.75,489.12 
	432,784.77 446.25,489.12 523.36,652.56 460.8,478.23 650.38,650.38 478.23,460.8 652.57,523.36 "/>
</svg>
