<?xml version="1.0" encoding="utf-8"?>
<!-- Generator: Adobe Illustrator 27.0.0, SVG Export Plug-In . SVG Version: 6.00 Build 0)  -->
<svg version="1.1" id="Stars_by_Dreamstale" xmlns="http://www.w3.org/2000/svg" xmlns:xlink="http://www.w3.org/1999/xlink"
	 x="0px" y="0px" viewBox="0 0 864 864" style="enable-background:new 0 0 864 864;" xml:space="preserve">
<style type="text/css">
	.st0{fill:#F8C400;}
</style>
<g>
	<polygon class="st0" points="492.3,450.05 419.03,326.83 345.77,450.05 205.94,481.65 300.49,589.41 287.33,732.16 419.03,675.54 
		550.73,732.16 537.58,589.41 632.13,481.65 	"/>
	<polygon class="st0" points="224.56,351.15 285.95,377.55 279.82,311.01 323.89,260.78 258.71,246.05 224.56,188.61 190.41,246.05 
		125.23,260.78 169.3,311.01 163.17,377.55 	"/>
	<polygon class="st0" points="474.81,277.64 522.18,257.27 569.56,277.64 564.82,226.29 598.83,187.53 548.54,176.16 522.18,131.84 
		495.83,176.16 445.53,187.53 479.54,226.29 	"/>
	<polygon class="st0" points="738.77,373.92 703.78,366.02 685.45,335.18 667.12,366.02 632.13,373.92 655.78,400.89 652.49,436.61 
		685.45,422.44 718.4,436.61 715.11,400.89 	"/>
</g>
</svg>
